<svg width="60" height="21" viewBox="0 0 60 21" fill="none" xmlns="http://www.w3.org/2000/svg">
<path d="M0.44 21V0.391998H11.768C13.8587 0.391998 15.448 0.882665 16.536 1.864C17.624 2.84533 18.168 4.25333 18.168 6.088C18.168 7.15467 17.9653 8.05067 17.56 8.776C17.176 9.50133 16.664 10.0773 16.024 10.504C16.8987 10.8453 17.592 11.3467 18.104 12.008C18.6373 12.648 18.904 13.608 18.904 14.888C18.904 16.8293 18.3067 18.3333 17.112 19.4C15.9173 20.4667 14.2213 21 12.024 21H0.44ZM6.232 8.616H10.136C11.608 8.616 12.344 7.95467 12.344 6.632C12.344 5.97067 12.1627 5.46933 11.8 5.128C11.4587 4.78667 10.8507 4.616 9.976 4.616H6.232V8.616ZM6.232 16.808H10.392C11.2027 16.808 11.8 16.6373 12.184 16.296C12.568 15.9547 12.76 15.3893 12.76 14.6C12.76 13.9387 12.568 13.4373 12.184 13.096C11.8 12.7547 11.16 12.584 10.264 12.584H6.232V16.808ZM19.3938 21L27.2978 0.391998H33.6658L41.5698 21H35.2978L33.5698 16.616H27.3618L25.6658 21H19.3938ZM28.1618 12.296H32.7698L30.4658 6.248L28.1618 12.296ZM43.815 21V0.391998H59.431V5H49.831V8.36H58.247V13.032H49.831V16.392H59.431V21H43.815Z" fill="#363636"/>
</svg>
